<?xml version="1.0" encoding="UTF-8" standalone="no"?>
<!DOCTYPE svg PUBLIC "-//W3C//DTD SVG 1.1//EN" "http://www.w3.org/Graphics/SVG/1.1/DTD/svg11.dtd">
<svg width="100%" height="100%" viewBox="0 0 569 109" version="1.1" xmlns="http://www.w3.org/2000/svg" xmlns:xlink="http://www.w3.org/1999/xlink" xml:space="preserve" xmlns:serif="http://www.serif.com/" style="fill-rule:evenodd;clip-rule:evenodd;stroke-linejoin:round;stroke-miterlimit:2;">
    <g id="ArtBoard1" transform="matrix(1,0,0,1,-107.18,-152.257)">
        <rect x="107.18" y="152.257" width="568.507" height="108.247" style="fill:none;"/>
        <g transform="matrix(1,0,0,1,0.179835,0.256737)">
            <path d="M657.801,250.346L128.271,250.345C122.959,250.345 121.771,249.094 121.771,242.587C121.771,236.204 122.05,230.323 122.05,223.065C122.05,213.054 119.883,209.55 114.781,208.048L114.781,207.548C119.883,206.046 122.05,202.542 122.05,192.531C122.05,185.273 121.771,179.391 121.771,173.009C121.771,166.502 122.947,164.905 128.259,164.905L129.857,164.888L657.801,164.888C657.801,164.888 658.763,164.939 659.008,164.996C661.701,165.618 661.973,168.04 661.973,173.01C661.973,179.392 661.694,185.274 661.694,192.532C661.694,202.543 663.86,206.047 668.963,207.548L668.963,208.049C663.86,209.55 661.694,213.054 661.694,223.065C661.694,230.324 661.973,236.205 661.973,242.587C661.973,248.009 661.148,249.905 657.801,250.346Z" style="fill:rgb(235,235,235);"/>
            <path d="M657.801,253.846L128.271,253.845C124.195,253.845 121.841,252.906 120.366,251.178C119.047,249.632 118.271,247.052 118.271,242.587C118.271,236.204 118.55,230.323 118.55,223.065C118.55,215.509 117.644,212.539 113.793,211.406C112.304,210.967 111.281,209.601 111.281,208.048L111.281,207.548C111.281,205.995 112.304,204.628 113.793,204.19C117.644,203.057 118.55,200.087 118.55,192.531C118.55,185.273 118.271,179.391 118.271,173.009C118.271,168.634 118.988,165.978 120.277,164.347C121.762,162.468 124.126,161.409 128.236,161.405L129.857,161.388L657.801,161.388C657.863,161.388 657.925,161.389 657.987,161.393C657.987,161.393 659.428,161.501 659.796,161.586C662.506,162.212 664.029,163.71 664.843,166.336C665.323,167.882 665.473,170.065 665.473,173.01C665.473,179.392 665.194,185.274 665.194,192.532C665.194,200.088 666.1,203.057 669.951,204.191C671.44,204.629 672.463,205.996 672.463,207.548L672.463,208.049C672.463,209.601 671.44,210.968 669.951,211.406C666.1,212.54 665.194,215.509 665.194,223.065C665.194,230.324 665.473,236.205 665.473,242.587C665.473,247.013 664.72,249.636 663.413,251.216C662.281,252.585 660.711,253.472 658.369,253.799L658.246,253.817C658.1,253.836 657.951,253.846 657.801,253.846ZM657.801,250.346L128.271,250.345C122.959,250.345 121.771,249.094 121.771,242.587C121.771,236.204 122.05,230.323 122.05,223.065C122.05,213.054 119.883,209.55 114.781,208.048L114.781,207.548C119.883,206.046 122.05,202.542 122.05,192.531C122.05,185.273 121.771,179.391 121.771,173.009C121.771,166.502 122.947,164.905 128.259,164.905L129.857,164.888L657.801,164.888C657.801,164.888 658.763,164.939 659.008,164.996C661.701,165.618 661.973,168.04 661.973,173.01C661.973,179.392 661.694,185.274 661.694,192.532C661.694,202.543 663.86,206.047 668.963,207.548L668.963,208.049C663.86,209.55 661.694,213.054 661.694,223.065C661.694,230.324 661.973,236.205 661.973,242.587C661.973,248.009 661.148,249.905 657.801,250.346Z" style="fill:rgb(156,31,188);"/>
        </g>
        <g transform="matrix(1,0,0,1,-0.351455,-0.743263)">
            <g transform="matrix(1.8279,0,0,1.00182,-271.232,-122.348)">
                <g transform="matrix(39.3894,0,0,71.8695,363.245,351.746)">
                    <path d="M0.244,-0.515L0.43,-0.515L0.4,-0.445C0.424,-0.466 0.45,-0.483 0.479,-0.496C0.508,-0.509 0.536,-0.515 0.564,-0.515L0.699,-0.515C0.718,-0.515 0.732,-0.51 0.742,-0.5C0.752,-0.489 0.757,-0.476 0.757,-0.46C0.806,-0.497 0.854,-0.515 0.903,-0.515L1.1,-0.515C1.139,-0.515 1.159,-0.497 1.159,-0.461C1.159,-0.45 1.156,-0.439 1.151,-0.426L0.97,-0L0.784,-0L0.933,-0.352C0.934,-0.353 0.934,-0.355 0.934,-0.357C0.934,-0.362 0.931,-0.365 0.925,-0.365L0.766,-0.365C0.751,-0.365 0.741,-0.358 0.735,-0.344L0.589,-0L0.406,-0L0.555,-0.352C0.556,-0.353 0.556,-0.355 0.556,-0.357C0.556,-0.362 0.553,-0.365 0.547,-0.365L0.388,-0.365C0.373,-0.365 0.363,-0.358 0.357,-0.344L0.211,-0L0.025,-0L0.244,-0.515Z" style="fill:rgb(169,39,171);fill-rule:nonzero;"/>
                </g>
                <g transform="matrix(39.3894,0,0,71.8695,404.451,351.746)">
                    <path d="M0.39,-0.042C0.342,-0.026 0.295,-0.014 0.25,-0.005C0.204,0.004 0.171,0.008 0.152,0.008C0.116,0.008 0.09,-0.006 0.075,-0.034C0.06,-0.062 0.061,-0.096 0.078,-0.136L0.181,-0.379C0.198,-0.419 0.221,-0.453 0.252,-0.481C0.283,-0.509 0.325,-0.523 0.379,-0.523C0.397,-0.523 0.424,-0.519 0.46,-0.512C0.495,-0.504 0.534,-0.493 0.575,-0.478L0.587,-0.506L0.767,-0.506L0.552,-0L0.372,-0L0.39,-0.042ZM0.524,-0.357C0.521,-0.358 0.513,-0.359 0.5,-0.361C0.487,-0.362 0.472,-0.364 0.458,-0.366C0.443,-0.368 0.428,-0.37 0.414,-0.371C0.4,-0.372 0.391,-0.373 0.386,-0.373C0.371,-0.373 0.361,-0.366 0.355,-0.352L0.275,-0.163C0.269,-0.149 0.273,-0.142 0.287,-0.142C0.29,-0.142 0.3,-0.143 0.315,-0.144C0.33,-0.145 0.346,-0.147 0.364,-0.149C0.381,-0.151 0.397,-0.153 0.412,-0.155C0.427,-0.156 0.436,-0.157 0.439,-0.158L0.524,-0.357Z" style="fill:rgb(169,39,171);fill-rule:nonzero;"/>
                </g>
                <g transform="matrix(39.3894,0,0,71.8695,430.364,351.746)">
                    <path d="M0.461,-0.15L0.397,-0L0.19,-0C0.15,-0 0.122,-0.014 0.106,-0.042C0.09,-0.07 0.09,-0.104 0.107,-0.144L0.21,-0.386L0.142,-0.386L0.197,-0.515L0.265,-0.515L0.327,-0.663L0.513,-0.663L0.451,-0.515L0.615,-0.515L0.56,-0.386L0.396,-0.386L0.305,-0.171C0.299,-0.157 0.303,-0.15 0.317,-0.15L0.461,-0.15Z" style="fill:rgb(169,39,171);fill-rule:nonzero;"/>
                </g>
                <g transform="matrix(39.3894,0,0,71.8695,448.431,351.746)">
                    <path d="M0.177,-0.371C0.194,-0.411 0.219,-0.445 0.252,-0.473C0.285,-0.501 0.322,-0.515 0.362,-0.515L0.695,-0.515C0.72,-0.515 0.737,-0.506 0.747,-0.489C0.757,-0.472 0.757,-0.451 0.746,-0.426L0.7,-0.317L0.514,-0.317L0.528,-0.352C0.532,-0.361 0.53,-0.365 0.521,-0.365L0.381,-0.365C0.367,-0.365 0.357,-0.358 0.351,-0.344L0.278,-0.171C0.272,-0.157 0.276,-0.15 0.29,-0.15L0.43,-0.15C0.439,-0.15 0.445,-0.154 0.448,-0.163L0.463,-0.198L0.649,-0.198L0.603,-0.089C0.592,-0.064 0.575,-0.043 0.55,-0.026C0.525,-0.009 0.501,-0 0.476,-0L0.163,-0C0.123,-0 0.095,-0.014 0.079,-0.042C0.063,-0.07 0.063,-0.104 0.08,-0.144L0.177,-0.371Z" style="fill:rgb(169,39,171);fill-rule:nonzero;"/>
                </g>
                <g transform="matrix(39.3894,0,0,71.8695,472.472,351.746)">
                    <path d="M0.338,-0.72L0.524,-0.72L0.428,-0.494C0.477,-0.503 0.522,-0.51 0.563,-0.515C0.604,-0.52 0.633,-0.523 0.65,-0.523C0.69,-0.523 0.718,-0.509 0.734,-0.481C0.75,-0.453 0.75,-0.419 0.733,-0.379L0.572,-0L0.386,-0L0.535,-0.352C0.541,-0.366 0.537,-0.373 0.524,-0.373C0.521,-0.373 0.511,-0.372 0.497,-0.371C0.482,-0.37 0.465,-0.368 0.447,-0.366C0.429,-0.364 0.413,-0.362 0.398,-0.361C0.383,-0.359 0.373,-0.358 0.37,-0.357L0.218,-0L0.032,-0L0.338,-0.72Z" style="fill:rgb(169,39,171);fill-rule:nonzero;"/>
                </g>
            </g>
            <g transform="matrix(1,0,0,1,-12.6184,1)">
                <g transform="matrix(72,0,0,72,146.092,229.037)">
                    <path d="M0.264,-0.168L0.261,-0.161C0.255,-0.147 0.259,-0.14 0.273,-0.14L0.429,-0.14C0.446,-0.14 0.459,-0.149 0.467,-0.168C0.475,-0.187 0.47,-0.196 0.453,-0.196L0.262,-0.196C0.216,-0.196 0.185,-0.212 0.168,-0.243C0.151,-0.274 0.152,-0.314 0.173,-0.362C0.192,-0.406 0.22,-0.443 0.259,-0.472C0.298,-0.501 0.337,-0.515 0.378,-0.515L0.592,-0.515C0.636,-0.515 0.667,-0.499 0.685,-0.468C0.703,-0.437 0.703,-0.399 0.684,-0.355L0.681,-0.348L0.506,-0.348L0.508,-0.354C0.514,-0.368 0.51,-0.375 0.496,-0.375L0.385,-0.375C0.368,-0.375 0.355,-0.366 0.348,-0.348C0.34,-0.329 0.345,-0.32 0.362,-0.32L0.521,-0.32C0.567,-0.32 0.599,-0.304 0.616,-0.273C0.632,-0.241 0.631,-0.201 0.61,-0.153C0.591,-0.109 0.563,-0.073 0.524,-0.044C0.485,-0.015 0.446,-0 0.405,-0L0.179,-0C0.135,-0 0.104,-0.016 0.086,-0.047C0.068,-0.078 0.068,-0.116 0.087,-0.16L0.09,-0.168L0.264,-0.168Z" style="fill:rgb(55,55,55);fill-rule:nonzero;"/>
                </g>
                <g transform="matrix(72,0,0,72,191.596,229.037)">
                    <path d="M0.244,-0.515L0.43,-0.515L0.211,-0L0.025,-0L0.244,-0.515ZM0.358,-0.785L0.544,-0.785L0.475,-0.621L0.289,-0.621L0.358,-0.785Z" style="fill:rgb(55,55,55);fill-rule:nonzero;"/>
                </g>
                <g transform="matrix(72,0,0,72,213.484,229.037)">
                    <path d="M0.244,-0.515L0.43,-0.515L0.4,-0.445C0.424,-0.466 0.45,-0.483 0.479,-0.496C0.508,-0.509 0.536,-0.515 0.564,-0.515L0.699,-0.515C0.718,-0.515 0.732,-0.51 0.742,-0.5C0.752,-0.489 0.757,-0.476 0.757,-0.46C0.806,-0.497 0.854,-0.515 0.903,-0.515L1.1,-0.515C1.139,-0.515 1.159,-0.497 1.159,-0.461C1.159,-0.45 1.156,-0.439 1.151,-0.426L0.97,-0L0.784,-0L0.933,-0.352C0.934,-0.353 0.934,-0.355 0.934,-0.357C0.934,-0.362 0.931,-0.365 0.925,-0.365L0.766,-0.365C0.751,-0.365 0.741,-0.358 0.735,-0.344L0.589,-0L0.406,-0L0.555,-0.352C0.556,-0.353 0.556,-0.355 0.556,-0.357C0.556,-0.362 0.553,-0.365 0.547,-0.365L0.388,-0.365C0.373,-0.365 0.363,-0.358 0.357,-0.344L0.211,-0L0.025,-0L0.244,-0.515Z" style="fill:rgb(55,55,55);fill-rule:nonzero;"/>
                </g>
                <g transform="matrix(72,0,0,72,289.804,229.037)">
                    <path d="M0.244,-0.515L0.64,-0.515C0.67,-0.515 0.693,-0.507 0.71,-0.491C0.727,-0.474 0.735,-0.453 0.735,-0.427C0.735,-0.409 0.731,-0.39 0.722,-0.371L0.623,-0.136C0.606,-0.096 0.583,-0.062 0.554,-0.034C0.525,-0.006 0.492,0.008 0.457,0.008C0.449,0.008 0.436,0.007 0.419,0.006C0.401,0.004 0.381,0.002 0.359,-0.001C0.336,-0.003 0.313,-0.006 0.289,-0.01C0.264,-0.013 0.241,-0.017 0.22,-0.021L0.13,0.19L-0.056,0.19L0.244,-0.515ZM0.278,-0.158C0.281,-0.157 0.29,-0.156 0.303,-0.155C0.316,-0.153 0.331,-0.151 0.347,-0.149C0.362,-0.147 0.377,-0.145 0.391,-0.144C0.405,-0.143 0.414,-0.142 0.418,-0.142C0.432,-0.142 0.442,-0.149 0.448,-0.163L0.525,-0.344C0.526,-0.348 0.527,-0.351 0.527,-0.353C0.527,-0.361 0.522,-0.365 0.513,-0.365L0.366,-0.365L0.278,-0.158Z" style="fill:rgb(55,55,55);fill-rule:nonzero;"/>
                </g>
                <g transform="matrix(72,0,0,72,335.884,229.037)">
                    <path d="M0.118,-0C0.093,-0 0.076,-0.009 0.066,-0.026C0.056,-0.043 0.056,-0.064 0.067,-0.089L0.335,-0.72L0.521,-0.72L0.282,-0.158C0.28,-0.153 0.281,-0.15 0.285,-0.15L0.322,-0.15L0.258,-0L0.118,-0Z" style="fill:rgb(55,55,55);fill-rule:nonzero;"/>
                </g>
                <g transform="matrix(72,0,0,72,359.644,229.037)">
                    <path d="M0.611,-0.15L0.547,-0L0.163,-0C0.123,-0 0.095,-0.014 0.079,-0.042C0.063,-0.07 0.063,-0.104 0.08,-0.144L0.177,-0.371C0.194,-0.411 0.219,-0.445 0.252,-0.473C0.285,-0.501 0.322,-0.515 0.362,-0.515L0.64,-0.515C0.68,-0.515 0.708,-0.501 0.724,-0.473C0.74,-0.445 0.74,-0.411 0.723,-0.371L0.654,-0.209L0.294,-0.209L0.278,-0.171C0.272,-0.157 0.276,-0.15 0.29,-0.15L0.611,-0.15ZM0.507,-0.302L0.525,-0.344C0.531,-0.358 0.527,-0.365 0.513,-0.365L0.381,-0.365C0.367,-0.365 0.357,-0.358 0.351,-0.344L0.333,-0.302L0.507,-0.302Z" style="fill:rgb(55,55,55);fill-rule:nonzero;"/>
                </g>
            </g>
        </g>
    </g>
</svg>
